<mxfile host="app.diagrams.net" modified="2023-08-24T12:56:37.384Z" agent="Mozilla/5.0 (Windows NT 10.0; Win64; x64) AppleWebKit/537.36 (KHTML, like Gecko) Chrome/116.0.0.0 Safari/537.36" version="21.6.5" etag="HwM1evZTSljsB_RHKT3a" type="github">
  <diagram name="Page-1" id="OOXmuI5TJvolC-dsEPXV">
    <mxGraphModel>
      <root>
        <mxCell id="0" />
        <mxCell id="1" parent="0" />
      </root>
    </mxGraphModel>
  </diagram>
</mxfile>
